grf
version=1
nRows=9
nColumns=37
inDegrees=no
endheader
time	ground_force_1_vx	ground_force_1_vy	ground_force_1_vz	ground_force_1_px	ground_force_1_py	ground_force_1_pz	ground_moment_1_mx	ground_moment_1_my	ground_moment_1_mz	ground_force_2_vx	ground_force_2_vy	ground_force_2_vz	ground_force_2_px	ground_force_2_py	ground_force_2_pz	ground_moment_2_mx	ground_moment_2_my	ground_moment_2_mz	ground_force_3_vx	ground_force_3_vy	ground_force_3_vz	ground_force_3_px	ground_force_3_py	ground_force_3_pz	ground_moment_3_mx	ground_moment_3_my	ground_moment_3_mz	ground_force_4_vx	ground_force_4_vy	ground_force_4_vz	ground_force_4_px	ground_force_4_py	ground_force_4_pz	ground_moment_4_mx	ground_moment_4_my	ground_moment_4_mz
      0.00000000	      0.00000000	     -0.00000000	      0.00000000	      0.00000000	      0.00000000	      0.00000000	      0.00000000	      0.00000000	      0.00000000	     -3.34855437	     20.81420326	   -301.62640381	   -322.47812367	  -1057.97582503	      0.00000000	      0.00000000	      0.00000000	   1756.02550484	      1.73065426	    -20.18071380	   -468.92318726	   -354.24571811	   -803.29126609	      0.00000000	      0.00000000	     -0.00000000	  -2021.24372760	      0.00000000	     -0.00000000	      0.00000000	      0.00000000	      0.00000000	      0.00000000	      0.00000000	      0.00000000	      0.00000000
      0.01000000	      0.00000000	     -0.00000000	      0.00000000	      0.00000000	      0.00000000	      0.00000000	      0.00000000	      0.00000000	      0.00000000	     -3.47920990	     21.12324524	   -300.72879028	   -323.05683631	  -1057.83042629	      0.00000000	      0.00000000	      0.00000000	   1692.50230085	      1.77421389	    -20.66458336	   -469.25976562	   -353.27714205	   -803.52190693	      0.00000000	      0.00000000	     -0.00000000	  -2088.58070898	      0.00000000	     -0.00000000	      0.00000000	      0.00000000	      0.00000000	      0.00000000	      0.00000000	      0.00000000	      0.00000000
      0.02000000	      0.00000000	     -0.00000000	      0.00000000	      0.00000000	      0.00000000	      0.00000000	      0.00000000	      0.00000000	      0.00000000	     -3.30123305	     20.90263176	   -300.73535156	   -322.92742399	  -1057.20210227	      0.00000000	     -0.00000000	      0.00000000	   1778.48537694	      2.30534328	    -20.35645314	   -470.81533813	   -353.65394549	   -803.50871655	      0.00000000	      0.00000000	     -0.00000000	  -2073.65633345	      0.00000000	     -0.00000000	      0.00000000	      0.00000000	      0.00000000	      0.00000000	      0.00000000	      0.00000000	      0.00000000
      0.03000000	      0.00000000	     -0.00000000	      0.00000000	      0.00000000	      0.00000000	      0.00000000	      0.00000000	      0.00000000	      0.00000000	     -3.12317848	     21.30236816	   -300.55532837	   -323.39549481	  -1057.62150883	      0.00000000	     -0.00000000	      0.00000000	   1734.91415857	      2.74913757	    -19.91698671	   -470.82919312	   -353.84626903	   -803.23853287	      0.00000000	      0.00000000	     -0.00000000	  -2105.68922992	      0.00000000	     -0.00000000	      0.00000000	      0.00000000	      0.00000000	      0.00000000	      0.00000000	      0.00000000	      0.00000000
      0.04000000	      0.00000000	     -0.00000000	      0.00000000	      0.00000000	      0.00000000	      0.00000000	      0.00000000	      0.00000000	      0.00000000	     -3.16687822	     20.49992943	   -299.84979248	   -323.85481337	  -1056.75105740	      0.00000000	      0.00000000	      0.00000000	   1650.78909790	      3.06209700	    -19.91559818	   -471.87716675	   -353.93742800	   -802.31496693	      0.00000000	      0.00000000	     -0.00000000	  -1918.58722798	      0.00000000	     -0.00000000	      0.00000000	      0.00000000	      0.00000000	      0.00000000	      0.00000000	      0.00000000	      0.00000000
      0.05000000	      0.00000000	     -0.00000000	      0.00000000	      0.00000000	      0.00000000	      0.00000000	      0.00000000	      0.00000000	      0.00000000	     -3.03407049	     20.67794991	   -298.79385376	   -323.81873330	  -1057.02944925	      0.00000000	      0.00000000	      0.00000000	   1694.02464379	      3.63714045	    -19.78289064	   -470.49026489	   -354.40068157	   -802.98288993	      0.00000000	      0.00000000	     -0.00000000	  -2184.37426305	      0.00000000	     -0.00000000	      0.00000000	      0.00000000	      0.00000000	      0.00000000	      0.00000000	      0.00000000	      0.00000000
      0.06000000	      0.00000000	     -0.00000000	      0.00000000	      0.00000000	      0.00000000	      0.00000000	      0.00000000	      0.00000000	      0.00000000	     -3.12236786	     20.49999237	   -297.90832520	   -324.99301731	  -1057.09936713	      0.00000000	     -0.00000000	      0.00000000	   1673.76181940	      3.45954363	    -19.91627914	   -468.03671265	   -354.14938730	   -804.49402163	      0.00000000	      0.00000000	     -0.00000000	  -2025.60249881	      0.00000000	     -0.00000000	      0.00000000	      0.00000000	      0.00000000	      0.00000000	      0.00000000	      0.00000000	      0.00000000
      0.07000000	      0.00000000	     -0.00000000	      0.00000000	      0.00000000	      0.00000000	      0.00000000	      0.00000000	      0.00000000	      0.00000000	     -3.07738113	     20.09700012	   -298.09295654	   -324.37665540	  -1057.57721457	      0.00000000	      0.00000000	      0.00000000	   1680.19123627	      3.32668534	    -20.04915267	   -469.78338623	   -354.64342469	   -802.91237965	      0.00000000	      0.00000000	     -0.00000000	  -2183.27366978	      0.00000000	     -0.00000000	      0.00000000	      0.00000000	      0.00000000	      0.00000000	      0.00000000	      0.00000000	      0.00000000
      0.08000000	      0.00000000	     -0.00000000	      0.00000000	      0.00000000	      0.00000000	      0.00000000	      0.00000000	      0.00000000	      0.00000000	     -3.07621932	     20.37092209	   -297.73071289	   -324.90905244	  -1057.51515164	      0.00000000	      0.00000000	      0.00000000	   1521.96245061	      2.92778365	    -20.00469806	   -468.39144897	   -354.10700531	   -803.53031374	      0.00000000	      0.00000000	     -0.00000000	  -2165.00468533	      0.00000000	     -0.00000000	      0.00000000	      0.00000000	      0.00000000	      0.00000000	      0.00000000	      0.00000000	      0.00000000
